<?xml version="1.0" encoding="utf-8"?>
<!-- Generator: $$$/GeneralStr/196=Adobe Illustrator 27.6.0, SVG Export Plug-In . SVG Version: 6.00 Build 0)  -->
<svg version="1.1" id="Calque_1" xmlns="http://www.w3.org/2000/svg" xmlns:xlink="http://www.w3.org/1999/xlink" x="0px" y="0px"
	 width="40px" height="40px" viewBox="0 0 40 40" style="enable-background:new 0 0 40 40;" xml:space="preserve">
<style type="text/css">
	.st0{fill:#FFFFFF;}
	.st1{fill:none;stroke:#FFFFFF;stroke-width:2;stroke-linecap:round;stroke-linejoin:round;stroke-miterlimit:10;}
</style>
<path class="st0" d="M14.6,17.6c-0.1,0.2-0.4,0.5-0.6,0.4c-0.5-1-2-1.9-3-1.1c-0.6,0.9,0.3,1.8,1.2,2c0.9,0.3,2,0.8,2.1,1.7
	c0.2,1.4-1.4,2.6-2.7,2.3c-0.9-0.1-1.7-0.8-2.1-1.6c0,0,0-0.1,0-0.2c0.1-0.2,0.4-0.5,0.6-0.4c0.5,1,1.8,1.8,2.8,1.5
	c0.6-0.2,0.7-0.6,0.6-1.1c-0.1-0.7-0.8-1.2-1.7-1.5c-1.6-0.4-2.5-1.7-1.3-3c1.2-1.3,3.2-0.7,3.9,0.8C14.7,17.5,14.6,17.6,14.6,17.6z
	"/>
<path class="st0" d="M22.8,16c0.3,0.1-0.3,0.7-0.5,0.7c0,0-3,0-3,0l-0.2,2.5c1,0,2,0,3,0c0.1,0,0.1,0.1,0.1,0.2
	c0,0.2-0.4,0.5-0.6,0.5c-0.9,0-1.7,0-2.6,0l-0.2,2.5c1.1,0,2.3,0,3.4,0c0.1,0,0.1,0.1,0.1,0.2c0,0.2-0.4,0.5-0.6,0.5
	c0,0-3.5,0-3.5,0c-0.1,0-0.1,0-0.1-0.1l0.5-6.3c0-0.1,0-0.1,0.1-0.2c0.1-0.2,0.3-0.3,0.4-0.3c0,0,0.1,0,0.1,0
	C19.4,16,22.8,16,22.8,16z"/>
<path class="st0" d="M26.9,16.5c0-0.2,0.3-0.5,0.5-0.6c0,0,0.1,0,0.1,0c0,0,3.5,0,3.5,0c0.1,0,0.1,0.1,0.1,0.2
	c0,0.2-0.4,0.5-0.6,0.5c0,0-3,0-3,0l-0.2,2.5c1,0,2,0,3,0c0.1,0,0.1,0.1,0.1,0.2c0,0.2-0.4,0.5-0.6,0.5c-0.9,0-1.7,0-2.6,0L27,22.4
	c0,0.2-0.3,0.5-0.5,0.6c-0.1,0.1-0.2,0-0.2-0.1L26.9,16.5z"/>
<path class="st1" d="M36,21.9v13.9c0,1.1-0.9,2.1-2.1,2.1H16.8v-7.8h-4.6v7.8H6.1C4.9,37.9,4,37,4,35.8V21.9"/>
<path class="st1" d="M36,16.9L21.4,2.7c-0.8-0.8-2.1-0.8-2.9,0L4,16.9"/>
</svg>
